HIERARCHY
ROOT Hip
{
	OFFSET 0.000000 0.000000 0.000000 
	CHANNELS 6 Xposition Yposition Zposition Xrotation Yrotation Zrotation
	JOINT LowerSpine
	{
		OFFSET 0.000000 8.345300 -5.129200 
		CHANNELS 3 Xrotation Yrotation Zrotation
		JOINT MiddleSpine
		{
			OFFSET 10.856900 0.000000 0.000000 
			CHANNELS 3 Xrotation Yrotation Zrotation
			JOINT Chest
			{
				OFFSET 15.298400 0.000000 0.000000 
				CHANNELS 3 Xrotation Yrotation Zrotation
				JOINT Neck
				{
					OFFSET 25.661800 -0.598600 0.000000 
					CHANNELS 3 Xrotation Yrotation Zrotation
					JOINT Head
					{
						OFFSET 8.882900 0.000000 0.000000 
						CHANNELS 3 Xrotation Yrotation Zrotation
						End Site
						{
							OFFSET 19.739901 0.000000 0.000000 
						}
					}
				}
				JOINT RClavicle
				{
					OFFSET 23.687799 0.000000 3.158400 
					CHANNELS 3 Xrotation Yrotation Zrotation
					JOINT RShoulder
					{
						OFFSET -15.594500 -3.948000 0.987000 
						CHANNELS 3 Xrotation Yrotation Zrotation
						JOINT RForearm
						{
							OFFSET -31.337000 0.000000 0.197400 
							CHANNELS 3 Xrotation Yrotation Zrotation
							JOINT RHand
							{
								OFFSET -26.402100 0.000000 0.000000 
								CHANNELS 3 Xrotation Yrotation Zrotation
								End Site
								{
									OFFSET -15.791900 -0.987000 0.000000 
								}
							}
						}
					}
				}
				JOINT LClavicle
				{
					OFFSET 23.687799 0.000000 -3.158400 
					CHANNELS 3 Xrotation Yrotation Zrotation
					JOINT LShoulder
					{
						OFFSET -15.594500 -3.948000 -0.987000 
						CHANNELS 3 Xrotation Yrotation Zrotation
						JOINT LForearm
						{
							OFFSET -31.337000 0.000000 -0.197400 
							CHANNELS 3 Xrotation Yrotation Zrotation
							JOINT LHand
							{
								OFFSET -26.402100 0.000000 0.000000 
								CHANNELS 3 Xrotation Yrotation Zrotation
								End Site
								{
									OFFSET -15.791900 -0.987000 0.000000 
								}
							}
						}
					}
				}
			}
		}
	}
	JOINT RThigh
	{
		OFFSET -8.882900 0.448100 0.000000 
		CHANNELS 3 Xrotation Yrotation Zrotation
		JOINT RShin
		{
			OFFSET 43.131599 0.000000 -0.493500 
			CHANNELS 3 Xrotation Yrotation Zrotation
			JOINT RFoot
			{
				OFFSET 0.000000 -44.725601 -0.404700 
				CHANNELS 3 Xrotation Yrotation Zrotation
				JOINT RToe
				{
					OFFSET 0.000000 -3.933200 12.195300 
					CHANNELS 3 Xrotation Yrotation Zrotation
					End Site
					{
						OFFSET 6.772500 0.000000 0.000000 
					}
				}
			}
		}
	}
	JOINT LThigh
	{
		OFFSET 8.882900 0.448100 0.000000 
		CHANNELS 3 Xrotation Yrotation Zrotation
		JOINT LShin
		{
			OFFSET 43.131599 0.000000 0.493500 
			CHANNELS 3 Xrotation Yrotation Zrotation
			JOINT LFoot
			{
				OFFSET 0.000000 -44.725601 0.404700 
				CHANNELS 3 Xrotation Yrotation Zrotation
				JOINT LToe
				{
					OFFSET 0.000000 -3.933200 -12.195300 
					CHANNELS 3 Xrotation Yrotation Zrotation
					End Site
					{
						OFFSET 6.772500 0.000000 0.000000 
					}
				}
			}
		}
	}
}
MOTION
Frames: 17
Frame Time: 0.016949
-18.603701 91.420303 -6.243600 -4.064968 8.746899 3.663529 -89.999992 -90.000000 0.000000 -0.568856 1.000775 0.533201 -1.934267 3.333548 1.828786 0.000000 0.000000 0.000000 0.000000 0.000000 0.000000 90.002693 0.050539 -90.679573 -132.709503 35.328121 48.300228 1.144837 13.390260 -6.026876 0.000000 0.000000 0.000000 -89.996727 0.319881 -85.702629 -27.632231 -23.203159 69.518669 -8.013170 -54.475651 -10.124480 0.000000 0.000000 0.000000 92.372177 71.446220 -175.775101 89.897293 11.386630 89.998627 -1.345555 -1.961532 -0.734129 171.326096 90.000000 0.000000 -94.828918 84.675667 7.957826 -89.937576 -6.950133 89.996696 6.448517 -5.467775 2.477425 180.339096 -90.000000 0.000000 
-19.779200 91.233398 -5.839500 -5.003107 10.029060 3.578493 -89.999992 -90.000000 0.000000 -0.552942 0.955585 0.498225 -1.873708 3.169893 1.697901 0.000000 0.000000 0.000000 0.000000 0.000000 0.000000 90.000977 0.020213 -90.271584 -135.391907 36.485489 50.792740 0.892028 11.039290 -5.973375 0.000000 0.000000 0.000000 -89.997887 0.356945 -85.204582 -27.796961 -22.380550 69.177803 -8.362305 -55.580379 -10.410590 0.000000 0.000000 0.000000 93.132538 72.587227 -174.418396 89.905144 10.525920 89.998016 -3.529601 -2.514619 -1.020404 173.234497 90.000000 0.000000 -93.422089 83.386032 6.959887 -89.932297 -7.536705 89.996773 6.998357 -7.238508 3.372931 180.285599 -90.000000 0.000000 
-21.052299 91.060204 -5.497200 -5.814255 10.846070 3.350177 -89.999992 -90.000000 0.000000 -0.522839 0.875989 0.435968 -1.769296 2.906140 1.483261 0.000000 0.000000 0.000000 0.000000 0.000000 0.000000 89.999420 -0.011720 -89.842201 -137.202499 37.700359 52.642792 0.746421 9.667307 -5.947205 0.000000 0.000000 0.000000 -89.999222 0.390225 -84.757210 -27.788980 -21.137800 69.678978 -8.994576 -57.431641 -10.937940 0.000000 0.000000 0.000000 93.461983 73.865356 -173.382706 89.906967 10.327030 89.997887 -5.607004 -2.714258 -1.179502 174.816696 90.000000 0.000000 -92.913933 82.008240 6.905548 -89.929108 -7.890769 89.996834 7.371123 -8.266407 3.916216 180.246902 -90.000000 0.000000 
-22.364799 90.965599 -5.249700 -6.305682 10.658390 2.996303 -89.999992 -90.000000 0.000000 -0.479520 0.767604 0.353573 -1.618059 2.548703 1.202992 0.000000 0.000000 0.000000 0.000000 0.000000 0.000000 89.998154 -0.042500 -89.428421 -136.018707 39.908192 52.262779 0.904933 11.160290 -5.975859 0.000000 0.000000 0.000000 -90.000366 0.414755 -84.427330 -27.513330 -19.008690 71.247070 -10.105480 -60.278099 -11.889010 0.000000 0.000000 0.000000 93.288849 75.003304 -172.833496 89.904312 10.618660 89.998070 -7.221006 -2.280705 -1.056342 175.892899 90.000000 0.000000 -92.312019 80.794327 6.800037 -89.928429 -7.966225 89.996849 7.063232 -8.060370 3.783331 180.641403 -90.000000 0.000000 
-23.753500 91.004501 -5.100000 -6.503006 8.985985 2.477863 -89.999992 -90.000000 0.000000 -0.420098 0.635467 0.267518 -1.412539 2.111277 0.909644 0.000000 0.000000 0.000000 0.000000 0.000000 0.000000 89.997223 -0.069514 -89.065376 -129.000397 43.898300 47.945980 1.559364 17.144360 -6.136089 0.000000 0.000000 0.000000 -90.000877 0.424797 -84.292328 -26.938320 -15.410500 73.320297 -12.094200 -64.355858 -13.651240 0.000000 0.000000 0.000000 92.618309 75.994797 -172.975693 89.895538 11.579120 89.998779 -8.275207 -1.369941 -0.647085 176.607498 90.000000 0.000000 -91.323013 79.743233 6.221139 -89.924423 -8.410187 89.996964 6.029816 -6.485865 2.947009 181.942200 -90.000000 0.000000 
-25.220301 91.133102 -5.090500 -6.500079 6.619625 1.770679 -89.999992 -90.000000 0.000000 -0.343434 0.487389 0.199062 -1.151576 1.620175 0.674888 0.000000 0.000000 0.000000 0.000000 0.000000 0.000000 89.996651 -0.088830 -88.805809 -113.473000 48.907421 36.489090 2.778353 27.271250 -6.598649 0.000000 0.000000 0.000000 -90.000412 0.415760 -84.413872 -25.851669 -11.679900 75.264610 -15.456730 -69.235741 -16.744711 0.000000 0.000000 0.000000 91.511009 77.082222 -173.503998 89.881371 13.120360 90.000237 -8.781000 -0.535188 -0.239088 176.849304 90.000000 0.000000 -90.456123 78.646133 5.410621 -89.915382 -9.408144 89.997337 4.638348 -4.267481 1.852172 183.862198 -90.000000 0.000000 
-26.757299 91.221901 -5.298500 -6.221347 4.620978 0.860880 -89.999992 -90.000000 0.000000 -0.254531 0.335318 0.166264 -0.852269 1.114869 0.560077 0.000000 0.000000 0.000000 0.000000 0.000000 0.000000 89.996498 -0.094768 -88.726051 -91.403130 50.185768 18.567980 4.777146 40.510601 -7.720763 0.000000 0.000000 0.000000 -89.999046 0.386195 -84.811394 -24.201710 -9.222103 76.779793 -21.545521 -74.545464 -22.538630 0.000000 0.000000 0.000000 90.085640 78.425613 -174.221695 89.862823 15.116550 90.002747 -9.006187 0.323099 0.179123 176.446396 90.000000 0.000000 -90.252724 77.296249 4.712881 -89.905319 -10.516300 89.997963 3.447145 -2.215838 0.915402 185.418793 -90.000000 0.000000 
-28.391701 91.186600 -5.798500 -5.513926 3.194964 -0.259231 -89.999992 -90.000000 0.000000 -0.165163 0.193188 0.176424 -0.552927 0.641948 0.590328 0.000000 0.000000 0.000000 0.000000 0.000000 0.000000 89.996872 -0.081149 -88.909019 -73.445503 45.546280 4.988294 8.301365 55.391979 -10.360350 0.000000 0.000000 0.000000 -89.997276 0.338981 -85.446022 -22.202971 -6.691255 77.991852 -37.332649 -80.445053 -37.976021 0.000000 0.000000 0.000000 88.279221 80.034714 -175.113495 89.840828 17.443020 90.006538 -9.256611 1.586875 0.790201 175.620697 90.000000 0.000000 -90.567543 75.607857 3.866020 -89.896271 -11.508500 89.998672 2.804704 -0.859686 0.342186 186.167603 -90.000000 0.000000 
-30.027901 91.055901 -6.577100 -4.442353 1.954181 -1.376756 -89.999992 -90.000000 0.000000 -0.090245 0.073550 0.223732 -0.302386 0.243740 0.746171 0.000000 0.000000 0.000000 0.000000 0.000000 0.000000 89.998093 -0.044176 -89.405884 -63.786640 38.265121 0.393159 16.398279 70.288834 -17.628160 0.000000 0.000000 0.000000 -89.995827 0.281108 -86.223541 -19.887341 -2.491533 79.164680 -95.697403 -84.105942 -95.921951 0.000000 0.000000 0.000000 86.012100 81.685516 -176.069702 89.816727 19.937519 90.011726 -9.558578 2.983558 1.477582 174.776093 90.000000 0.000000 -91.064217 73.872208 2.471983 -89.884148 -12.828140 89.999878 2.431003 -0.011546 0.005514 186.755295 -90.000000 0.000000 
-31.515800 90.917297 -7.429600 -3.331815 0.783209 -2.182102 -89.999992 -90.000000 0.000000 -0.041484 -0.015883 0.292514 -0.140447 -0.053914 0.974326 0.000000 0.000000 0.000000 0.000000 0.000000 0.000000 90.000687 0.014428 -90.193733 -58.735741 30.624180 1.311030 53.518250 82.746239 -53.993240 0.000000 0.000000 0.000000 -89.995171 0.221442 -87.024963 -17.232071 2.077942 79.897667 -147.397797 -79.136543 -147.183502 0.000000 0.000000 0.000000 83.673813 83.107986 -176.947205 89.792618 22.369560 90.017952 -9.829605 3.899264 1.945941 174.202805 90.000000 0.000000 -91.716011 72.614883 0.513512 -89.861671 -15.246290 90.002861 1.955401 0.956151 -0.351520 187.841797 -90.000000 0.000000 
-32.882301 90.833702 -8.116900 -2.483581 -0.045346 -2.664401 -89.999992 -90.000000 0.000000 -0.021475 -0.074224 0.363580 -0.079217 -0.248558 1.209318 0.000000 0.000000 0.000000 0.000000 0.000000 0.000000 90.004936 0.085899 -91.155434 -54.712898 23.362560 4.649889 145.292007 79.712784 -145.113403 0.000000 0.000000 0.000000 -89.995293 0.166929 -87.757187 -14.029200 4.867222 79.267616 -160.991592 -72.287086 -160.383896 0.000000 0.000000 0.000000 81.480263 84.311203 -177.312607 89.771477 24.442360 90.024246 -9.968687 4.315341 2.171957 173.791901 90.000000 0.000000 -92.427887 72.039803 -1.887653 -89.827477 -18.841650 90.009216 1.491663 1.740705 -0.621592 189.369797 -90.000000 0.000000 
-34.249802 90.733398 -8.620400 -1.899386 -0.483688 -2.976712 -89.999992 -90.000000 0.000000 -0.021788 -0.106558 0.420233 -0.093821 -0.358567 1.395859 0.000000 0.000000 0.000000 0.000000 0.000000 0.000000 90.010292 0.156061 -92.100571 -49.536572 16.889589 9.525420 162.977905 70.407204 -162.266098 0.000000 0.000000 0.000000 -89.995956 0.119824 -88.389954 -9.950402 6.126788 76.699867 -166.217896 -66.298576 -165.279694 0.000000 0.000000 0.000000 79.129211 85.410522 -176.861694 89.753090 26.199200 90.030319 -10.219650 4.568265 2.348847 173.519501 90.000000 0.000000 -92.864807 71.880180 -4.636532 -89.787323 -22.902399 90.019386 1.256236 1.768658 -0.619573 191.097107 -90.000000 0.000000 
-35.677399 90.523300 -9.019900 -1.502471 -0.667822 -3.173637 -89.999992 -90.000000 0.000000 -0.025718 -0.120955 0.452821 -0.126933 -0.412266 1.504804 0.000000 0.000000 0.000000 0.000000 0.000000 0.000000 90.015137 0.209482 -92.821060 -42.099831 11.982230 15.586350 168.217300 62.804340 -167.085999 0.000000 0.000000 0.000000 -89.996979 0.078107 -88.950439 -4.788802 7.358209 72.164673 -169.011002 -61.130489 -167.786606 0.000000 0.000000 0.000000 76.192451 86.449997 -175.402100 89.735703 27.817591 90.036568 -11.037470 4.580427 2.431668 173.759903 90.000000 0.000000 -92.075447 71.861893 -8.329089 -89.744873 -26.976839 90.033142 1.153739 1.368816 -0.472499 192.943100 -90.000000 0.000000 
-37.105801 90.251701 -9.384700 -1.212699 -0.580539 -3.283678 -89.999992 -90.000000 0.000000 -0.046985 -0.132522 0.460299 -0.107618 -0.434823 1.538271 0.000000 0.000000 0.000000 0.000000 0.000000 0.000000 90.017616 0.234149 -93.154083 -32.610279 9.138959 21.250549 170.686798 56.886009 -169.224197 0.000000 0.000000 0.000000 -89.998337 0.038168 -89.487167 1.847589 8.541708 66.025253 -170.664398 -56.950111 -169.205399 0.000000 0.000000 0.000000 70.983963 87.457962 -171.392197 89.719223 29.312559 90.042923 -12.237640 3.983651 2.211673 174.501999 90.000000 0.000000 -88.770462 71.978233 -14.402640 -89.698067 -31.182070 90.051620 0.915767 1.018230 -0.347939 194.891098 -90.000000 0.000000 
-38.418999 89.941299 -9.881300 -0.735969 -0.037039 -3.367712 -89.999992 -90.000000 0.000000 -0.002253 -0.132863 0.455205 0.020748 -0.440128 1.522091 0.000000 0.000000 0.000000 0.000000 0.000000 0.000000 90.016640 0.224505 -93.023880 -22.550550 6.973733 26.064470 172.235504 51.841721 -170.484100 0.000000 0.000000 0.000000 -90.000137 -0.003085 -90.041763 10.118170 8.313205 59.164501 -171.522095 -54.322449 -169.913696 0.000000 0.000000 0.000000 57.407719 88.368553 -159.217407 89.702011 30.831829 90.050003 -13.436080 2.697333 1.584783 175.350906 90.000000 0.000000 -83.856483 72.182854 -22.582420 -89.643227 -35.707321 90.077263 0.352596 0.664067 -0.224303 196.976395 -90.000000 0.000000 
-39.538799 89.597504 -10.512900 0.059888 1.161414 -3.419134 -89.999992 -90.000000 0.000000 0.078796 -0.130332 0.445591 0.275956 -0.431452 1.488555 0.000000 0.000000 0.000000 0.000000 0.000000 0.000000 90.012558 0.181992 -92.450287 -13.292230 4.215895 31.237511 173.276001 47.652039 -171.278702 0.000000 0.000000 0.000000 -90.002579 -0.048349 -90.650581 18.862471 5.502722 52.828281 -171.802200 -53.382980 -170.139801 0.000000 0.000000 0.000000 28.582790 88.905457 -132.038803 89.685760 32.227650 90.057083 -14.610760 1.154348 0.741405 176.124695 90.000000 0.000000 -79.758797 72.523468 -30.449890 -89.577438 -40.567020 90.112953 -0.309777 0.024003 -0.012716 198.726501 -90.000000 0.000000 
-40.369999 89.361298 -11.006500 0.845780 2.795747 -3.371154 -89.999992 -90.000000 0.000000 0.187317 -0.124450 0.436805 0.630447 -0.409235 1.458387 0.000000 0.000000 0.000000 0.000000 0.000000 0.000000 90.006912 0.113634 -91.529007 -5.286997 1.957063 37.172009 173.751907 45.474960 -171.624405 0.000000 0.000000 0.000000 -90.005997 -0.100808 -91.356667 26.730310 1.050948 48.068439 -171.712601 -53.688320 -170.067703 0.000000 0.000000 0.000000 4.084095 88.983551 -108.703697 89.676903 32.972759 90.061089 -15.533440 -0.044641 0.036266 176.637100 90.000000 0.000000 -76.487877 73.382874 -37.081749 -89.501007 -45.480499 90.160133 -0.614590 -0.695418 0.211735 199.114899 -90.000000 0.000000 
